<svg width="24" height="24" viewBox="0 0 24 24" fill="none" xmlns="http://www.w3.org/2000/svg">
<path d="M6 9.00002C6.23365 8.99956 6.46008 9.08094 6.64 9.23002L12 13.71L17.37 9.39002C17.4723 9.30695 17.59 9.24492 17.7163 9.20749C17.8427 9.17006 17.9752 9.15796 18.1062 9.1719C18.2372 9.18584 18.3642 9.22554 18.4798 9.28871C18.5955 9.35189 18.6975 9.43729 18.78 9.54002C18.8631 9.64231 18.9251 9.76 18.9625 9.88634C19 10.0127 19.0121 10.1452 18.9981 10.2762C18.9842 10.4072 18.9445 10.5342 18.8813 10.6498C18.8181 10.7655 18.7327 10.8675 18.63 10.95L12.63 15.78C12.4511 15.9271 12.2266 16.0075 11.995 16.0075C11.7634 16.0075 11.5389 15.9271 11.36 15.78L5.36 10.78C5.25874 10.6961 5.17504 10.593 5.11368 10.4766C5.05233 10.3603 5.01453 10.233 5.00246 10.102C4.99038 9.97101 5.00427 9.83894 5.04331 9.71334C5.08236 9.58773 5.14579 9.47107 5.23 9.37002C5.32305 9.25531 5.44036 9.16263 5.5735 9.09866C5.70664 9.03468 5.85229 9.00099 6 9.00002Z" fill="white"/>
</svg>
