<svg width="921" height="320" viewBox="0 0 921 320" fill="none" xmlns="http://www.w3.org/2000/svg">
<mask id="mask0_2_1055" style="mask-type:alpha" maskUnits="userSpaceOnUse" x="0" y="0" width="921" height="320">
<rect width="921" height="320" rx="20" fill="url(#paint0_linear_2_1055)"/>
</mask>
<g mask="url(#mask0_2_1055)">
<path d="M1891.53 701.716C1881.61 726.321 1855.09 743.105 1815.17 752.182C1775.28 761.251 1722.25 762.563 1659.75 756.436C1534.76 744.185 1372.13 702.212 1201.5 633.4C1030.87 564.587 884.624 481.992 786.107 404.105C736.843 365.158 699.56 327.424 677.122 293.219C654.665 258.983 647.211 228.499 657.133 203.895C667.056 179.291 693.573 162.507 733.498 153.43C773.388 144.361 826.417 143.049 888.918 149.175C1013.91 161.426 1176.54 203.399 1347.16 272.212C1517.79 341.025 1664.04 423.62 1762.56 501.506C1811.82 540.454 1849.1 578.187 1871.54 612.393C1894 646.628 1901.45 677.112 1891.53 701.716Z" stroke="url(#paint1_linear_2_1055)" stroke-width="2"/>
<path d="M1888.41 777.505C1875.14 800.48 1846.54 813.392 1805.74 816.798C1764.97 820.202 1712.28 814.087 1651.25 799.284C1529.2 769.68 1374.04 705.384 1214.71 613.393C1055.37 521.403 922.108 419.173 835.447 328.279C792.112 282.827 760.471 240.252 743.035 203.246C725.584 166.207 722.465 134.98 735.73 112.005C748.994 89.0293 777.597 76.117 818.399 72.7107C859.166 69.3074 911.857 75.4217 972.887 90.2252C1094.93 119.829 1250.1 184.125 1409.43 276.116C1568.77 368.107 1702.03 470.336 1788.69 561.23C1832.03 606.682 1863.67 649.257 1881.1 686.264C1898.56 723.302 1901.67 754.529 1888.41 777.505Z" stroke="url(#paint2_linear_2_1055)" stroke-width="2"/>
<path d="M858.492 398.64C855.606 401.527 850.926 401.526 848.04 398.64C848.04 398.64 766.789 317.39 766.786 317.387C742.733 293.333 731.686 257.885 736.888 224.368C738.437 214.387 741.404 204.622 745.752 195.502C749.522 187.592 754.28 180.161 759.859 173.406C781.52 147.176 815.257 132.657 849.193 134.62C859.146 135.195 869.342 137.277 878.864 140.695C893.786 146.042 907.085 154.484 918.387 165.786L999.64 247.04C1002.53 249.926 1002.53 254.606 999.64 257.493L858.492 398.64Z" fill="white"/>
<g opacity="0.6">
<path d="M938.092 195.054L941.543 198.506L974.926 266.563L894.01 347.479L856.817 382.273L811.726 350.984L802.458 341.716L757.502 292.613C746.857 274.965 742.171 254.739 743.434 234.818L938.092 195.054Z" fill="#FFCD6C"/>
<path d="M915.209 172.171L938.092 195.054L889.878 279.852L898.989 206.753L915.209 172.171Z" fill="#FDE8D8"/>
<path d="M913.606 170.569L915.209 172.171L889.878 279.853L868.505 182.64L876.812 147.207C890.252 152.023 902.848 159.811 913.606 170.569Z" fill="#445CEF"/>
<path d="M876.812 147.207L889.878 279.853L819.247 183.104L818.79 144.323C837.064 139.756 856.517 140.469 874.404 146.377C875.21 146.643 876.013 146.92 876.812 147.207Z" fill="#4AD3F0"/>
<path d="M818.79 144.323L889.878 279.852L785.572 213.067L766.004 177.667C767.955 175.298 770.028 173.016 772.232 170.794L772.676 170.35C785.899 157.215 801.891 148.522 818.79 144.323Z" fill="#FDE8D8"/>
<path d="M889.878 279.852L888.972 281.629L888.127 281.359L888.119 281.35L886.551 280.845L886.499 280.828L886.49 280.819L743.434 234.818C743.434 234.731 743.434 234.662 743.443 234.583C744.776 214.261 752.293 194.27 766.004 177.667L889.878 279.852Z" fill="#FF595E"/>
<path d="M888.127 281.36L888.119 281.351L802.458 341.716L772.458 311.716C766.91 306.168 762.153 300.14 758.199 293.746C757.955 293.38 757.728 292.997 757.502 292.614L886.489 280.819L886.498 280.828L889.242 280.575L888.127 281.36Z" fill="#445CEF"/>
<path d="M879.66 180.942C881.437 184.496 899.895 236.316 905.897 244.548C909.639 249.677 927.096 270.074 939.737 284.726C943.926 289.582 947.029 290.043 949.486 292.872L936.497 310.182L927.673 319.006C927.673 319.006 898.657 341.528 896.825 339.742C891.278 334.332 884.157 328.842 876.986 327.29C861.638 323.945 800.036 325.949 797.588 320.836C795.141 315.723 801.369 304.599 808.268 302.596C815.158 300.601 849.182 303.04 848.746 297.709C848.302 292.37 832.736 280.358 820.942 274.347C809.156 268.346 764.226 245.663 766.674 236.543C769.121 227.423 774.905 224.758 781.578 227.876C788.25 230.977 836.507 260.123 837.622 256.778C838.738 253.45 782.693 204.514 784.47 199.183C786.255 193.843 793.146 186.064 796.926 187.615C800.698 189.175 850.079 240.332 851.629 237.876C853.188 235.428 821.159 177.163 824.278 173.609C827.387 170.046 834.295 165.821 837.849 168.94C841.403 172.041 872.091 231.648 874.321 230.324C876.551 228.983 860.976 184.053 865.863 180.943C870.767 177.833 877.874 177.38 879.66 180.942Z" fill="#7B6FE6"/>
<path d="M915.309 303.787C914.743 304.422 914.159 305.041 913.558 305.642C909.578 309.675 904.961 313.316 899.525 314.884C895.797 315.964 891.842 316.016 887.966 315.781C884.447 315.572 880.876 315.119 877.609 313.769C872.043 311.461 867.854 306.731 864.43 301.775C859.343 294.405 855.415 285.477 857.061 276.688C857.767 272.934 859.465 269.458 861.695 266.392C863.934 263.334 866.364 260.573 869.03 258.291C869.596 257.811 870.162 257.35 870.746 256.923L889.44 268.178C889.439 268.178 919.76 298.83 915.309 303.787Z" fill="#445CEF"/>
<path d="M910.527 264.04C911.302 265.286 912.077 266.531 912.957 267.69C915.257 270.704 918.306 273.143 920.405 276.305C922.357 279.249 923.402 282.768 923.393 286.296C923.367 292.873 919.76 298.831 915.309 303.787C911.903 306.862 908.053 309.458 903.672 310.738C899.952 311.809 895.998 311.862 892.122 311.627C888.594 311.426 885.022 310.973 881.765 309.614C876.199 307.306 872 302.585 868.577 297.628C863.49 290.259 859.562 281.331 861.216 272.533C861.913 268.788 863.621 265.303 865.851 262.237C866.87 260.852 867.924 259.519 869.03 258.291C869.596 257.812 870.162 257.35 870.746 256.924L888.295 267.73L910.527 264.04Z" fill="#00020A"/>
<path d="M906.947 259.102C907.086 259.224 907.217 259.372 907.348 259.52C907.383 259.555 907.418 259.607 907.453 259.642C908.629 260.992 909.578 262.516 910.528 264.041C909.761 267.751 907.923 271.279 905.04 274.162C904.561 274.641 904.064 275.086 903.55 275.495C903.428 275.617 903.306 275.722 903.176 275.8C899.648 278.579 895.406 279.998 891.129 280.077C890.972 280.077 890.806 280.086 890.65 280.086C889.247 280.077 887.845 279.929 886.46 279.624C886.312 279.581 886.164 279.554 886.033 279.511C882.531 278.675 879.195 276.889 876.469 274.162C875.798 273.492 875.197 272.786 874.64 272.054C874.457 271.819 874.282 271.593 874.126 271.331C871.147 267.046 870.023 261.863 870.746 256.924C870.851 256.837 870.964 256.741 871.086 256.671C871.199 256.575 871.321 256.488 871.46 256.401C873.333 255.051 875.346 253.945 877.479 253.135C878.045 252.916 878.62 252.725 879.195 252.551C882.714 251.488 886.599 251.192 890.859 251.897C892.418 252.15 893.995 252.472 895.536 252.899C895.684 252.925 895.832 252.969 895.98 253.012C897.818 253.526 899.613 254.188 901.285 255.025C901.442 255.094 901.608 255.173 901.747 255.26C903.68 256.253 905.449 257.516 906.947 259.102Z" fill="#FFC4D5"/>
<path d="M904.848 259.319C904.108 259.607 903.393 260.164 902.697 260.983C900.022 264.145 899.508 268.91 901.425 272.586C901.634 272.97 901.878 273.37 902.104 273.754C902.505 274.433 902.906 275.112 903.175 275.8C903.306 275.722 903.428 275.617 903.55 275.495C903.271 274.834 902.896 274.18 902.504 273.527C902.278 273.144 902.052 272.76 901.842 272.377C899.996 268.858 900.492 264.302 903.045 261.28C903.707 260.496 904.351 260.008 905.013 259.746C905.797 259.45 906.608 259.476 907.452 259.642C907.417 259.607 907.383 259.555 907.348 259.52C907.217 259.372 907.086 259.224 906.947 259.102C906.242 259.023 905.545 259.058 904.848 259.319ZM901.285 255.025C900.283 255.696 899.264 256.332 898.254 256.941C896.529 257.987 894.77 259.084 893.158 260.347C888.986 263.649 886.878 267.899 887.522 271.732C887.766 273.161 888.367 274.511 888.96 275.8C889.273 276.445 889.587 277.107 889.839 277.812C889.979 278.178 890.118 278.579 890.266 278.971C890.388 279.337 890.51 279.703 890.649 280.086C890.806 280.086 890.972 280.077 891.129 280.077C890.972 279.659 890.841 279.249 890.693 278.84C890.553 278.439 890.423 278.03 890.266 277.646C890.013 276.94 889.682 276.261 889.394 275.608C888.793 274.345 888.21 273.03 887.966 271.653C887.356 267.977 889.386 263.892 893.445 260.704C895.013 259.45 896.781 258.378 898.488 257.333C899.568 256.671 900.666 255.991 901.746 255.26C901.608 255.173 901.442 255.095 901.285 255.025ZM895.536 252.9C895.135 253.527 894.631 254.05 894.056 254.415C892.915 255.138 891.495 255.269 890.11 255.399C888.594 255.556 887.009 255.695 885.755 256.619C884.291 257.716 883.525 259.72 883.716 262.019C883.829 263.561 884.335 265.042 884.814 266.462C884.936 266.88 885.067 267.272 885.214 267.664C886.521 271.827 886.765 275.939 886.033 279.51C886.164 279.554 886.312 279.58 886.46 279.623C887.226 275.965 886.956 271.775 885.632 267.524C885.501 267.132 885.371 266.723 885.231 266.322C884.752 264.92 884.273 263.465 884.169 261.984C884.021 260.32 884.447 258.152 886.024 256.993C887.174 256.139 888.637 256 890.17 255.843C891.59 255.712 893.071 255.573 894.299 254.815C894.97 254.388 895.545 253.779 895.98 253.011C895.832 252.969 895.684 252.926 895.536 252.9ZM877.479 253.135C876.617 253.753 875.815 254.433 875.188 255.304C873.524 257.647 873.472 260.765 873.585 263.562C873.237 262.238 872.827 260.922 872.426 259.616C872.096 258.57 871.755 257.481 871.459 256.401C871.32 256.488 871.198 256.576 871.085 256.671C871.364 257.717 871.686 258.753 872 259.764C872.635 261.828 873.289 263.927 873.715 266.079C873.811 267.829 873.942 269.58 874.125 271.331C874.282 271.592 874.456 271.819 874.639 272.054C874.621 271.985 874.63 271.906 874.621 271.845C874.674 271.305 874.674 270.748 874.674 270.207C874.639 268.814 874.447 267.403 874.16 266.018C874.125 265.251 874.099 264.511 874.046 263.762C873.933 260.861 873.924 257.856 875.562 255.573C876.494 254.293 877.844 253.396 879.194 252.551C878.62 252.725 878.045 252.917 877.479 253.135Z" fill="#FDE8D8"/>
<path d="M880.546 307.86C885.459 302.947 885.459 294.982 880.546 290.069C875.633 285.155 867.667 285.155 862.754 290.069C857.841 294.982 857.841 302.947 862.754 307.86C867.667 312.773 875.633 312.773 880.546 307.86Z" fill="#FFCD6C"/>
<path d="M908.307 292.988L904.454 298.52L908.307 304.052C908.438 304.24 908.209 304.469 908.021 304.338L902.489 300.485L896.957 304.338C896.769 304.469 896.54 304.24 896.671 304.052L900.524 298.52L896.671 292.988C896.54 292.8 896.769 292.571 896.957 292.702L902.489 296.555L908.021 292.702C908.209 292.571 908.438 292.799 908.307 292.988Z" fill="#FDE8D8"/>
<path d="M872.841 272.015L869.978 276.125L872.841 280.236C872.938 280.375 872.768 280.546 872.628 280.448L868.518 277.585L864.407 280.448C864.267 280.546 864.097 280.375 864.195 280.236L867.058 276.125L864.195 272.015C864.097 271.875 864.268 271.705 864.407 271.802L868.518 274.665L872.629 271.802C872.768 271.705 872.938 271.875 872.841 272.015Z" fill="#FDE8D8"/>
<path d="M913.283 277.993L911.486 280.573L913.284 283.153C913.345 283.241 913.238 283.348 913.15 283.286L910.57 281.489L907.99 283.286C907.902 283.348 907.795 283.241 907.857 283.153L909.653 280.573L907.856 277.993C907.795 277.905 907.902 277.798 907.99 277.859L910.57 279.656L913.15 277.86C913.238 277.798 913.345 277.905 913.283 277.993Z" fill="#FDE8D8"/>
<path d="M888.997 286.955C889.939 286.014 889.939 284.487 888.997 283.545C888.056 282.604 886.529 282.604 885.587 283.545C884.645 284.487 884.645 286.014 885.587 286.955C886.529 287.897 888.056 287.897 888.997 286.955Z" fill="#FDE8D8"/>
<path d="M902.86 284.658C903.597 285.395 903.597 286.589 902.86 287.326C902.123 288.063 900.928 288.063 900.192 287.326C899.455 286.589 899.455 285.395 900.192 284.658C900.928 283.921 902.123 283.921 902.86 284.658Z" fill="#FDE8D8"/>
<path d="M893.148 297.557C894.09 298.498 894.09 300.025 893.148 300.966C892.206 301.908 890.68 301.908 889.738 300.967C888.797 300.025 888.796 298.499 889.738 297.557C890.68 296.615 892.207 296.615 893.148 297.557Z" fill="#FDE8D8"/>
<path d="M832.943 264.997C832.764 265.176 832.486 265.232 832.244 265.117C831.936 264.972 831.805 264.605 831.95 264.297C838.764 249.917 851.883 239.63 863.456 230.554C863.724 230.345 864.111 230.391 864.321 230.659C864.53 230.926 864.48 231.302 864.217 231.524C852.748 240.516 839.751 250.707 833.064 264.825C833.032 264.89 832.992 264.948 832.943 264.997Z" fill="#00020A"/>
<path d="M941.524 198.486L994.859 251.822L936.498 310.183C934.878 304.242 938.876 296.655 946.576 294.373C940.975 289.016 935.592 284.051 931.393 277.396C929.328 274.129 927.517 270.593 926.96 266.76C926.158 261.272 928.144 255.454 932.151 251.621C936.149 247.779 942.046 246.029 947.499 247.057C936.837 233.66 935.191 214.418 941.524 198.486Z" fill="#00020A"/>
<path d="M927.386 319.295L853.711 392.969L811.726 350.984C812.152 350.836 812.571 350.714 812.989 350.609C821.551 348.475 831.29 352.413 835.967 359.895C834.138 346.707 844.695 333.38 857.822 331.106C870.949 328.85 884.826 337.064 890.165 349.268C890.052 338.911 897.569 329.878 906.245 324.234C910.052 321.751 914.224 319.704 918.693 318.981C921.585 318.51 924.538 318.641 927.386 319.295Z" fill="#00020A"/>
<path d="M847.218 158.133L839.083 148.03L849.974 154.853L857.124 146.127L854.172 157.083L862.963 162.2L852.992 161.019L853.582 171.975L849.252 162.266L838.559 166.661L847.218 158.133Z" fill="#FDE8D8"/>
<path d="M799.917 281.347L791.782 271.243L802.673 278.066L809.824 269.341L806.871 280.297L815.662 285.414L805.691 284.233L806.281 295.189L801.951 285.479L791.258 289.875L799.917 281.347Z" fill="#FDE8D8"/>
<path d="M767.53 250.593C769.74 252.803 769.74 256.388 767.53 258.599C765.319 260.81 761.734 260.81 759.523 258.599C757.312 256.388 757.313 252.803 759.523 250.593C761.734 248.381 765.319 248.382 767.53 250.593Z" fill="#FDE8D8"/>
<path d="M838.438 322.345C834.339 316.757 826.486 315.55 820.898 319.65C815.31 323.749 814.103 331.602 818.202 337.19C822.301 342.777 830.154 343.984 835.742 339.885C841.33 335.786 842.537 327.933 838.438 322.345Z" fill="#FF595E"/>
<path d="M909.309 205.541C903.824 204.378 900.32 198.988 901.484 193.502C902.648 188.018 908.037 184.514 913.523 185.677C919.008 186.841 922.511 192.231 921.348 197.716C920.184 203.201 914.794 206.705 909.309 205.541Z" fill="#7B6FE6"/>
<path d="M809.174 178.768C813.139 174.804 813.139 168.375 809.174 164.411C805.209 160.446 798.781 160.446 794.816 164.411C790.851 168.375 790.851 174.804 794.816 178.768C798.781 182.733 805.209 182.733 809.174 178.768Z" fill="#445CEF"/>
</g>
</g>
<defs>
<linearGradient id="paint0_linear_2_1055" x1="47.6379" y1="21.3333" x2="741.06" y2="513.358" gradientUnits="userSpaceOnUse">
<stop stop-color="#6763FD"/>
<stop offset="1" stop-color="#B84EF1"/>
</linearGradient>
<linearGradient id="paint1_linear_2_1055" x1="1347.54" y1="271.285" x2="1201.13" y2="634.327" gradientUnits="userSpaceOnUse">
<stop stop-color="#7B6FE6"/>
<stop offset="1" stop-color="#D8D8D8" stop-opacity="0"/>
</linearGradient>
<linearGradient id="paint2_linear_2_1055" x1="1409.93" y1="275.25" x2="1214.21" y2="614.259" gradientUnits="userSpaceOnUse">
<stop stop-color="#7B6FE6"/>
<stop offset="1" stop-color="#D8D8D8" stop-opacity="0"/>
</linearGradient>
</defs>
</svg>
