<svg width="24" height="24" viewBox="0 0 24 24" fill="none" xmlns="http://www.w3.org/2000/svg">
<path d="M12 4.5C11.586 4.5 11.25 4.164 11.25 3.75V3C11.25 2.586 11.586 2.25 12 2.25C12.414 2.25 12.75 2.586 12.75 3V3.75C12.75 4.164 12.414 4.5 12 4.5Z" fill="url(#paint0_linear_2_24)"/>
<path d="M18.5452 11.0457C18.1313 11.0457 17.7952 10.7097 17.7952 10.2957C17.7952 7.2477 15.3203 4.65045 12.2783 4.50645C9.2325 4.36582 6.51713 6.71145 6.23025 9.74182C6.213 9.92295 6.20438 10.1089 6.20438 10.2957C6.20438 10.7097 5.86838 11.0457 5.45438 11.0457C5.04038 11.0457 4.70438 10.7097 4.70438 10.2957C4.70438 10.0617 4.71525 9.8277 4.737 9.60045C5.09813 5.78445 8.517 2.82795 12.3491 3.00832C16.1794 3.18945 19.2952 6.4587 19.2952 10.2957C19.2952 10.7101 18.9592 11.0457 18.5452 11.0457Z" fill="url(#paint1_linear_2_24)"/>
<path d="M19.9511 16.1613C19.7662 16.1613 19.5806 16.0931 19.4355 15.9562C18.393 14.9692 17.7949 13.5794 17.7949 12.1436C17.7949 11.7296 18.1309 11.3936 18.5449 11.3936C18.9589 11.3936 19.2949 11.7296 19.2949 12.1436C19.2949 13.1692 19.722 14.1622 20.4667 14.8668C20.7675 15.1514 20.7806 15.6262 20.496 15.9273C20.3486 16.0826 20.1499 16.1613 19.9511 16.1613Z" fill="url(#paint2_linear_2_24)"/>
<path d="M4.04809 16.1613C3.84896 16.1613 3.65059 16.0829 3.50321 15.9269C3.21859 15.6262 3.23171 15.1514 3.53246 14.8668C4.27721 14.1622 4.70434 13.1696 4.70434 12.1436C4.70434 11.7296 5.04034 11.3936 5.45434 11.3936C5.86834 11.3936 6.20434 11.7296 6.20434 12.1436C6.20434 13.5802 5.60622 14.9699 4.56371 15.9562C4.41821 16.0931 4.23296 16.1613 4.04809 16.1613Z" fill="url(#paint3_linear_2_24)"/>
<path d="M12 21.75C9.9675 21.75 8.25 20.0325 8.25 18C8.25 17.586 8.586 17.25 9 17.25C9.414 17.25 9.75 17.586 9.75 18C9.75 19.2195 10.7805 20.25 12 20.25C13.2195 20.25 14.25 19.2195 14.25 18C14.25 17.586 14.586 17.25 15 17.25C15.414 17.25 15.75 17.586 15.75 18C15.75 20.0325 14.0325 21.75 12 21.75Z" fill="url(#paint4_linear_2_24)"/>
<path d="M5.07896 18.7504C4.16509 18.7504 3.35209 18.1916 3.00746 17.3269C2.66246 16.461 2.86834 15.4954 3.53209 14.8669C3.83284 14.5819 4.30721 14.595 4.59259 14.8958C4.87721 15.1965 4.86446 15.6713 4.56371 15.9563C4.23521 16.2675 4.35596 16.6594 4.40096 16.7719C4.44559 16.8836 4.62671 17.2504 5.07896 17.2504C5.49296 17.2504 5.82896 17.5864 5.82896 18.0004C5.82896 18.4144 5.49334 18.7504 5.07896 18.7504Z" fill="url(#paint5_linear_2_24)"/>
<path d="M18.9203 18.7501C18.5063 18.7501 18.1703 18.4141 18.1703 18.0001C18.1703 17.5861 18.5063 17.2501 18.9203 17.2501C19.3729 17.2501 19.5544 16.8818 19.5994 16.7689C19.644 16.6568 19.7644 16.2664 19.4359 15.9556C19.1352 15.6706 19.122 15.1962 19.4067 14.8951C19.6917 14.5943 20.166 14.5812 20.4672 14.8658C21.1309 15.4943 21.3372 16.4592 20.9929 17.3236C20.6479 18.1902 19.8342 18.7501 18.9203 18.7501Z" fill="url(#paint6_linear_2_24)"/>
<path d="M5.45395 12.8932C5.03995 12.8932 4.70395 12.5572 4.70395 12.1432V10.296C4.70395 9.88196 5.03995 9.54596 5.45395 9.54596C5.86795 9.54596 6.20396 9.88196 6.20396 10.296V12.1432C6.20396 12.5572 5.86833 12.8932 5.45395 12.8932Z" fill="url(#paint7_linear_2_24)"/>
<path d="M18.5453 9.54638C18.1313 9.54638 17.7953 9.88238 17.7953 10.2964V12.1436C17.7953 12.5576 18.1313 12.8936 18.5453 12.8936C18.9593 12.8936 19.2953 12.5576 19.2953 12.1436V10.2964C19.2953 9.88238 18.9593 9.54638 18.5453 9.54638Z" fill="url(#paint8_linear_2_24)"/>
<path d="M18.9202 18.75H5.07895C4.66495 18.75 4.32895 18.414 4.32895 18C4.32895 17.586 4.66495 17.25 5.07895 17.25H18.9198C19.3338 17.25 19.6698 17.586 19.6698 18C19.6698 18.414 19.3342 18.75 18.9202 18.75Z" fill="url(#paint9_linear_2_24)"/>
<defs>
<linearGradient id="paint0_linear_2_24" x1="11.3276" y1="2.4" x2="12.9809" y2="2.67173" gradientUnits="userSpaceOnUse">
<stop stop-color="#6763FD"/>
<stop offset="1" stop-color="#B84EF1"/>
</linearGradient>
<linearGradient id="paint1_linear_2_24" x1="5.45908" y1="3.53684" x2="19.2237" y2="9.69128" gradientUnits="userSpaceOnUse">
<stop stop-color="#6763FD"/>
<stop offset="1" stop-color="#B84EF1"/>
</linearGradient>
<linearGradient id="paint2_linear_2_24" x1="17.9452" y1="11.7114" x2="21.1624" y2="12.1949" gradientUnits="userSpaceOnUse">
<stop stop-color="#6763FD"/>
<stop offset="1" stop-color="#B84EF1"/>
</linearGradient>
<linearGradient id="paint3_linear_2_24" x1="3.44836" y1="11.7114" x2="6.66555" y2="12.1949" gradientUnits="userSpaceOnUse">
<stop stop-color="#6763FD"/>
<stop offset="1" stop-color="#B84EF1"/>
</linearGradient>
<linearGradient id="paint4_linear_2_24" x1="8.63793" y1="17.55" x2="15.9014" y2="20.5345" gradientUnits="userSpaceOnUse">
<stop stop-color="#6763FD"/>
<stop offset="1" stop-color="#B84EF1"/>
</linearGradient>
<linearGradient id="paint5_linear_2_24" x1="2.99691" y1="14.934" x2="6.2714" y2="15.5236" gradientUnits="userSpaceOnUse">
<stop stop-color="#6763FD"/>
<stop offset="1" stop-color="#B84EF1"/>
</linearGradient>
<linearGradient id="paint6_linear_2_24" x1="18.3248" y1="14.9333" x2="21.5998" y2="15.523" gradientUnits="userSpaceOnUse">
<stop stop-color="#6763FD"/>
<stop offset="1" stop-color="#B84EF1"/>
</linearGradient>
<linearGradient id="paint7_linear_2_24" x1="4.78154" y1="9.76911" x2="6.45902" y2="9.95444" gradientUnits="userSpaceOnUse">
<stop stop-color="#6763FD"/>
<stop offset="1" stop-color="#B84EF1"/>
</linearGradient>
<linearGradient id="paint8_linear_2_24" x1="17.8729" y1="12.6705" x2="19.5504" y2="12.4851" gradientUnits="userSpaceOnUse">
<stop stop-color="#6763FD"/>
<stop offset="1" stop-color="#B84EF1"/>
</linearGradient>
<linearGradient id="paint9_linear_2_24" x1="5.12244" y1="17.35" x2="7.48272" y2="23.3012" gradientUnits="userSpaceOnUse">
<stop stop-color="#6763FD"/>
<stop offset="1" stop-color="#B84EF1"/>
</linearGradient>
</defs>
</svg>
