<svg width="37" height="36" viewBox="0 0 37 36" fill="none" xmlns="http://www.w3.org/2000/svg">
<path d="M30.5454 14.9555L26.0454 10.4554C25.8332 10.2505 25.549 10.1371 25.254 10.1397C24.9591 10.1423 24.6769 10.2606 24.4683 10.4692C24.2597 10.6777 24.1414 10.9599 24.1389 11.2549C24.1363 11.5498 24.2497 11.834 24.4546 12.0462C25.4065 12.9982 24.7323 14.6258 23.3861 14.6258H11.75C11.4516 14.6258 11.1655 14.7444 10.9545 14.9553C10.7435 15.1663 10.625 15.4525 10.625 15.7508C10.625 16.0492 10.7435 16.3354 10.9545 16.5463C11.1655 16.7573 11.4516 16.8758 11.75 16.8758H29.75C29.9725 16.8758 30.1899 16.8098 30.3749 16.6862C30.5599 16.5625 30.704 16.3869 30.7891 16.1813C30.8743 15.9758 30.8965 15.7496 30.8532 15.5314C30.8098 15.3132 30.7027 15.1128 30.5454 14.9555Z" fill="url(#paint0_linear_1940_416)"/>
<path d="M25.2499 19.125H7.24994C7.02747 19.125 6.81001 19.1911 6.62505 19.3147C6.44009 19.4383 6.29593 19.614 6.21081 19.8195C6.12568 20.025 6.1034 20.2512 6.14679 20.4694C6.19018 20.6876 6.29728 20.888 6.45457 21.0454L10.9546 25.5454C11.1667 25.7503 11.4509 25.8637 11.7459 25.8611C12.0409 25.8586 12.323 25.7402 12.5316 25.5317C12.7402 25.3231 12.8585 25.0409 12.8611 24.7459C12.8636 24.451 12.7502 24.1668 12.5453 23.9546C11.5934 23.0027 12.2676 21.375 13.6139 21.375H25.2499C25.5483 21.375 25.8345 21.2565 26.0454 21.0455C26.2564 20.8345 26.3749 20.5484 26.3749 20.25C26.3749 19.9516 26.2564 19.6655 26.0454 19.4545C25.8345 19.2435 25.5483 19.125 25.2499 19.125Z" fill="url(#paint1_linear_1940_416)"/>
<defs>
<linearGradient id="paint0_linear_1940_416" x1="11.6724" y1="10.5887" x2="26.468" y2="21.554" gradientUnits="userSpaceOnUse">
<stop stop-color="#6763FD"/>
<stop offset="1" stop-color="#B84EF1"/>
</linearGradient>
<linearGradient id="paint1_linear_1940_416" x1="7.17258" y1="19.5741" x2="21.9682" y2="30.5393" gradientUnits="userSpaceOnUse">
<stop stop-color="#6763FD"/>
<stop offset="1" stop-color="#B84EF1"/>
</linearGradient>
</defs>
</svg>
